<?xml version="1.0" standalone="no"?>
<!DOCTYPE svg PUBLIC "-//W3C//DTD SVG 20010904//EN"
 "http://www.w3.org/TR/2001/REC-SVG-20010904/DTD/svg10.dtd">
<svg version="1.0" xmlns="http://www.w3.org/2000/svg"
 width="500.000000pt" height="500.000000pt" viewBox="0 0 500.000000 500.000000"
 preserveAspectRatio="xMidYMid meet">

<g transform="translate(0.000000,500.000000) scale(0.100000,-0.100000)"
fill="#000000" stroke="none">
<path d="M0 2500 l0 -2500 2500 0 2500 0 0 2500 0 2500 -2500 0 -2500 0 0
-2500z m2509 1143 c-9 -11 -9 -12 3 -8 17 7 32 -20 21 -37 -3 -6 -2 -8 4 -5 5
4 16 -6 24 -21 7 -15 19 -35 27 -44 8 -9 11 -21 8 -27 -3 -5 -3 -11 1 -13 12
-5 63 -83 63 -96 0 -7 4 -12 8 -12 9 0 37 -54 30 -56 -1 -1 5 -11 15 -22 10
-11 15 -27 11 -38 -4 -13 -3 -15 3 -7 11 16 48 -42 37 -59 -4 -6 -3 -8 3 -5 5
3 43 -52 84 -124 41 -71 88 -154 106 -184 17 -30 28 -55 25 -55 -4 0 -2 -4 4
-8 6 -4 23 -29 37 -55 15 -26 34 -59 43 -72 9 -14 14 -25 10 -25 -3 0 3 -9 14
-20 12 -12 18 -25 15 -29 -2 -5 2 -11 10 -15 9 -3 12 -12 8 -22 -4 -10 -2 -15
4 -11 8 5 43 -50 43 -68 0 -2 -28 13 -62 34 -48 29 -71 51 -95 92 -18 30 -36
59 -40 64 -5 6 -18 29 -30 52 -29 55 -47 87 -53 93 -3 3 -20 34 -39 70 -19 36
-39 72 -45 80 -7 8 -25 40 -41 70 -16 30 -35 61 -42 68 -7 7 -13 18 -13 23 0
6 -13 30 -30 54 -16 24 -30 46 -30 48 0 4 -138 247 -144 254 -1 1 -27 -2 -59
-6 l-57 -8 32 56 c17 31 41 73 52 93 16 28 24 34 33 26 10 -8 10 -14 2 -25z
m-19 -353 c0 -5 -4 -10 -10 -10 -5 0 -10 -6 -10 -12 0 -7 -4 -19 -9 -27 -8
-12 -12 -12 -25 -2 -13 11 -17 9 -26 -14 -7 -18 -7 -33 2 -48 10 -20 10 -21
-5 -8 -10 7 -17 10 -17 6 0 -4 -6 -2 -14 4 -10 8 -16 9 -21 1 -3 -5 1 -10 9
-10 9 0 15 -3 15 -7 -3 -21 2 -34 11 -28 6 4 7 11 4 17 -4 7 -2 8 4 4 9 -5 8
-12 0 -26 -12 -18 -13 -18 -22 -2 -16 28 -34 42 -53 41 -15 0 -14 -2 5 -11 12
-6 22 -17 22 -25 0 -7 5 -13 11 -13 10 0 7 -50 -6 -70 -10 -17 -25 -1 -25 26
0 30 -23 28 -29 -2 -1 -10 -9 -26 -17 -35 -16 -18 -12 -85 5 -82 5 2 8 -4 5
-12 -4 -8 -10 -12 -16 -9 -5 3 -8 0 -7 -7 2 -8 -4 -27 -14 -44 -9 -16 -16 -25
-17 -20 0 6 7 21 16 33 11 16 12 22 3 22 -10 0 -10 3 -1 12 15 15 16 32 1 22
-8 -5 -8 -1 0 14 9 16 7 24 -5 37 -15 14 -15 18 -1 33 19 22 60 103 54 108 -2
2 -10 -8 -17 -24 -8 -15 -23 -40 -34 -56 -11 -17 -28 -45 -38 -64 -15 -30 -15
-36 -3 -49 11 -11 15 -11 15 -2 0 10 3 10 13 0 10 -11 9 -14 -2 -18 -10 -4
-10 -7 -1 -13 9 -6 9 -13 -1 -31 -7 -13 -12 -27 -11 -31 1 -5 -4 -8 -12 -8 -8
0 -18 -5 -22 -12 -5 -7 -2 -9 8 -6 8 4 15 1 15 -6 0 -7 -9 -13 -19 -13 -10 -1
-18 3 -18 9 0 6 -2 9 -5 6 -10 -10 8 -39 21 -34 20 8 17 2 -8 -20 -12 -10 -18
-13 -14 -6 4 7 3 19 -4 27 -6 8 -12 34 -13 59 -2 40 -3 43 -14 23 -6 -13 -8
-23 -2 -25 16 -6 10 -48 -11 -70 -12 -12 -19 -22 -16 -22 2 0 13 -3 23 -6 15
-5 15 -4 3 5 -10 7 -11 11 -2 11 6 0 12 7 12 16 0 8 5 12 11 9 6 -4 8 -13 5
-20 -2 -7 1 -18 7 -25 7 -7 7 -10 2 -7 -14 7 -38 -12 -53 -43 -11 -23 -12 -22
-6 15 4 27 2 37 -4 30 -6 -5 -12 -23 -14 -39 -4 -41 -23 -43 -25 -3 -2 23 0
28 7 17 11 -17 13 -1 4 24 -5 13 -11 8 -26 -20 -15 -28 -16 -39 -7 -50 6 -8 9
-18 5 -21 -4 -4 -11 -1 -16 7 -5 8 -12 11 -17 7 -4 -5 -1 -12 6 -16 17 -11 -4
-25 -21 -15 -10 5 -10 4 -2 -5 9 -10 19 -9 44 6 18 10 43 24 56 31 12 7 26 21
29 32 4 11 11 20 17 20 7 0 6 -5 -2 -15 -6 -8 -9 -19 -5 -25 9 -14 218 -13
266 2 39 11 42 15 54 76 5 24 10 31 18 23 7 -7 6 -15 -3 -25 -7 -9 -10 -22 -7
-31 4 -8 2 -17 -3 -20 -6 -4 -10 -11 -10 -17 0 -7 5 -7 14 1 24 20 25 82 2
121 -17 29 -17 33 -3 21 20 -16 23 -2 5 18 -11 12 -10 13 6 7 17 -6 17 -5 5
11 -12 14 -12 16 0 8 11 -6 13 -4 8 9 -4 9 -3 15 2 12 11 -7 104 -169 104
-182 0 -5 -26 -56 -58 -113 -55 -97 -84 -129 -93 -103 -2 7 -13 12 -23 12 -11
0 -17 -4 -14 -10 3 -5 1 -10 -4 -10 -6 0 -11 5 -11 10 0 15 -525 13 -550 -2
-36 -23 -32 0 12 79 116 204 402 699 411 711 12 15 217 17 217 2z m-55 -82
c-8 -5 -12 -15 -9 -21 5 -9 4 -9 -6 0 -10 9 -10 15 -2 26 7 8 8 18 4 23 -4 4
1 2 11 -6 16 -12 17 -14 2 -22z m-115 -198 c-15 -12 -20 -22 -15 -31 8 -12 6
-12 -8 0 -9 7 -17 17 -17 22 0 16 31 38 47 32 13 -5 12 -9 -7 -23z m-70 -26
c0 -8 -4 -12 -10 -9 -5 3 -10 1 -10 -6 0 -7 -3 -10 -6 -6 -3 3 -3 15 1 26 7
23 25 19 25 -5z m214 -196 c-5 -7 -10 -24 -12 -38 -4 -28 -22 -50 -43 -53 -8
-2 -20 -6 -27 -11 -11 -7 -11 -4 -1 12 7 11 18 18 25 15 8 -3 11 2 7 15 -2 10
2 26 11 34 8 9 12 19 8 23 -4 5 -1 5 6 1 11 -7 17 6 12 29 -1 6 4 5 10 -2 7
-7 9 -17 4 -25z m-394 -98 c0 -5 -5 -10 -11 -10 -5 0 -7 5 -4 10 3 6 8 10 11
10 2 0 4 -4 4 -10z m-37 -197 c-29 -2 -77 -2 -105 0 -29 2 -6 3 52 3 58 0 81
-1 53 -3z"/>
<path d="M2530 3570 c-12 -7 -10 -9 7 -7 12 0 19 5 17 9 -6 10 -6 10 -24 -2z"/>
<path d="M2766 3172 c-3 -5 1 -9 9 -9 8 0 12 4 9 9 -3 4 -7 8 -9 8 -2 0 -6 -4
-9 -8z"/>
<path d="M2840 3020 c-6 -11 -8 -20 -6 -20 3 0 10 9 16 20 6 11 8 20 6 20 -3
0 -10 -9 -16 -20z"/>
<path d="M2993 2765 c0 -8 4 -12 9 -9 5 3 6 10 3 15 -9 13 -12 11 -12 -6z"/>
<path d="M3046 2643 c-6 -14 -5 -15 5 -6 7 7 10 15 7 18 -3 3 -9 -2 -12 -12z"/>
<path d="M2445 3260 c-3 -5 -1 -10 4 -10 6 0 11 5 11 10 0 6 -2 10 -4 10 -3 0
-8 -4 -11 -10z"/>
<path d="M2343 3206 c-26 -12 -30 -26 -8 -26 8 0 15 5 15 10 0 6 9 10 20 10
11 0 20 5 20 10 0 12 -18 11 -47 -4z"/>
<path d="M2320 3131 c0 -6 4 -13 10 -16 6 -3 7 1 4 9 -7 18 -14 21 -14 7z"/>
<path d="M2349 3103 c0 -5 -3 -19 -5 -32 -2 -14 -2 -22 1 -19 8 8 17 58 10 58
-3 0 -5 -3 -6 -7z"/>
<path d="M2180 2941 c0 -10 19 -25 25 -20 1 2 -3 10 -11 17 -8 7 -14 8 -14 3z"/>
<path d="M2110 2815 c-19 -36 -8 -40 12 -4 9 16 14 29 9 29 -4 0 -14 -11 -21
-25z"/>
<path d="M2424 2672 c-6 -4 -14 -18 -18 -32 -3 -14 -3 -19 0 -12 11 23 24 12
19 -15 -5 -24 -3 -23 15 10 25 45 17 71 -16 49z m26 -11 c0 -6 -4 -13 -10 -16
-5 -3 -10 1 -10 9 0 9 5 16 10 16 6 0 10 -4 10 -9z"/>
<path d="M1947 2553 c-3 -5 102 -8 234 -8 131 0 239 3 239 8 0 4 -105 7 -234
7 -129 0 -237 -3 -239 -7z"/>
<path d="M1900 2530 c-12 -7 -10 -9 7 -7 12 0 19 5 17 9 -6 10 -6 10 -24 -2z"/>
<path d="M2432 2758 c-14 -14 -16 -42 -3 -34 7 5 23 46 17 46 -1 0 -7 -5 -14
-12z"/>
</g>
</svg>
